<svg width="15" height="26" viewBox="0 0 15 26" fill="none" xmlns="http://www.w3.org/2000/svg">
<path d="M3.36097 25.5012C3.08528 25.7792 2.70999 25.9355 2.31849 25.9355C1.92699 25.9355 1.5517 25.7792 1.276 25.5012L0.688684 24.9139C0.401902 24.6377 0.242425 24.2549 0.248198 23.8567L0.248197 2.83082C0.242424 2.43266 0.401901 2.04991 0.688683 1.77365L1.276 1.18633C1.5517 0.908367 1.92698 0.752014 2.31849 0.752014C2.70999 0.752014 3.08528 0.908367 3.36097 1.18633L14.4906 12.316C14.7745 12.5824 14.9356 12.9544 14.9356 13.3438C14.9356 13.7331 14.7745 14.1051 14.4906 14.3716L3.36097 25.5012Z" fill="white"/>
</svg>
