<svg width="84" height="84" viewBox="0 0 84 84" fill="none" xmlns="http://www.w3.org/2000/svg">
<path d="M82.1635 39.0385L44.9635 1.83848C44.265 1.14569 43.3223 0.755119 42.3385 0.750977H41.6635C40.6797 0.755119 39.737 1.14569 39.0385 1.83848L1.83848 39.0385C1.14569 39.737 0.755119 40.6797 0.750977 41.6635V42.3385C0.755119 43.3223 1.14569 44.265 1.83848 44.9635L39.0385 82.1635C39.737 82.8563 40.6797 83.2468 41.6635 83.251H42.3385C43.3223 83.2468 44.265 82.8563 44.9635 82.1635L82.1635 44.9635C82.8563 44.265 83.2468 43.3223 83.251 42.3385V41.6635C83.2468 40.6797 82.8563 39.737 82.1635 39.0385ZM63.976 39.5635L52.726 50.8135C52.1939 51.3655 51.3793 51.538 50.6692 51.249C49.959 50.96 49.4963 50.2677 49.501 49.501V42.001H30.751V51.376C30.751 52.4115 29.9115 53.251 28.876 53.251H25.126C24.0904 53.251 23.251 52.4115 23.251 51.376V38.251C23.251 36.1799 24.9299 34.501 27.001 34.501H49.501V27.001C49.5115 26.2508 49.9682 25.5792 50.6619 25.2935C51.3556 25.0079 52.1528 25.1633 52.6885 25.6885L63.9385 36.9385C64.6444 37.6654 64.6608 38.8167 63.976 39.5635Z" fill="#F58020"/>
</svg>
