<svg width="40" height="40" viewBox="0 0 40 40" fill="none" xmlns="http://www.w3.org/2000/svg">
<path d="M33.6224 5.83891H33.1352C32.7063 5.83676 32.2813 5.91956 31.8846 6.08253L24.6896 9.08722L17.7869 6.21246C17.195 5.96628 16.5603 5.83934 15.9191 5.83891H13.9702C13.3291 5.83934 12.6943 5.96628 12.1024 6.21246L6.2067 8.66494C5.59473 8.91633 5.19641 9.51381 5.19973 10.1754V34.2616C5.19973 34.7101 5.56331 35.0737 6.0118 35.0737H6.49905C6.92791 35.0758 7.35295 34.993 7.74965 34.8301L14.9447 31.8254L21.8473 34.7001C22.4393 34.9463 23.074 35.0733 23.7151 35.0737H25.6641C26.3052 35.0733 26.9399 34.9463 27.5318 34.7001L33.4275 32.2477C34.0395 31.9963 34.4378 31.3988 34.4345 30.7372V6.65098C34.4345 6.20249 34.0709 5.83891 33.6224 5.83891ZM23.0654 31.6954L16.1953 28.8207L14.9447 28.301V9.08722H15.9191C16.1314 9.08978 16.3411 9.13392 16.5363 9.21715L23.439 12.0919L24.6896 12.6116V31.8254L23.7151 31.8254C23.4919 31.8272 23.2707 31.7829 23.0654 31.6954Z" fill="black"/>
</svg>
